<?xml version="1.0" encoding="utf-8"?>
<svg viewBox="0 0 1812 494" width="1812px" height="494px" xmlns="http://www.w3.org/2000/svg" xmlns:bx="https://boxy-svg.com">
  <g id="Capa_2" data-name="Capa 2" transform="matrix(0.99991, 0, 0, 0.99991, 230.13916, 116.508652)">
    <g id="Capa_1-2" data-name="Capa 1" transform="matrix(1.357141, 0, 0, 1.351736, -6.143727, -59.514015)" style="" bx:origin="-0.072343 -0.445942">
      <g id="MARCA_GRÁFICA" data-name="MARCA GRÁFICA">
        <path id="CONTENEDOR" d="M978.3,24.58,936.12,263.82a20.94,20.94,0,0,1-20.63,17.3H21A20.94,20.94,0,0,1,.32,256.55L42.51,17.3A20.94,20.94,0,0,1,63.13,0H957.68A20.94,20.94,0,0,1,978.3,24.58Z" style="fill:#00787f"/>
        <g id="CEAMSE">
          <path id="E2" d="M871.91,153.86h-73v27.71h73.59v24.17H769V80.41H872.21v24.17H798.93v27.71h73Z" style="fill:#fff"/>
          <path id="S" d="M677.46,154c-25.4,0-33.05-14.57-33.05-36.4,0-21.06,7-37.2,33.05-37.2H748.9V105.5H683.58c-6.89,0-9.34,5.51-9.34,12.7,0,7,2.45,12.57,9.34,12.57h36.1c25.4,0,32.89,12.3,32.89,35.95,0,24-7.34,39-32.89,39h-74.2V180.8h68.24c6.73,0,9.33-3.8,9.33-12.84,0-7.65-2.91-14-9.33-14Z" style="fill:#fff"/>
          <path id="M" d="M540.83,205.74l-30.44-83.16v83.16H483V80.41h39.93l32.59,89.49L589,80.41h39.32V205.74H601V122.93l-30.75,82.81Z" style="fill:#fff"/>
          <path id="A" d="M384,80.41h32.43l54.77,125.33H440.93l-12-27.05H371.8l-11.34,27.05H329.25Zm-2.6,75.44h38.4l-19.28-45.61Z" style="fill:#fff"/>
          <path id="E1" d="M319,153.86H246v27.71H319.6v24.17H216V80.41H319.3v24.17H246v27.71h73Z" style="fill:#fff"/>
          <path id="C" d="M198.74,205.74H146.57c-33,0-49.56-10.84-49.56-57.19,0-57.06,13.75-68.14,49.56-68.14h52.17V105h-52c-15,0-20.2,6.68-20.2,43.51,0,25.39,6.55,32.56,20.2,32.56h52Z" style="fill:#fff"/>
        </g>
      </g>
    </g>
  </g>
</svg>