<?xml version="1.0" encoding="utf-8"?>
<!-- Generator: Adobe Illustrator 25.4.1, SVG Export Plug-In . SVG Version: 6.00 Build 0)  -->
<svg version="1.0" id="katman_1" xmlns="http://www.w3.org/2000/svg" xmlns:xlink="http://www.w3.org/1999/xlink" x="0px" y="0px"
	 viewBox="0 0 1190.6 841.9" style="enable-background:new 0 0 1190.6 841.9;" xml:space="preserve">
<style type="text/css">
	.st0{fill-rule:evenodd;clip-rule:evenodd;fill:#007262;}
	.st1{fill:none;}
	.st2{fill:#007262;}
	.st3{fill:#007C6C;}
	.st4{fill:#007764;}
	.st5{fill:#00857A;}
	.st6{fill:#F0822D;}
	.st7{fill:#F59E2B;}
	.st8{fill:#FCBD2A;}
</style>
<g id="Layer_1">
	<g>
		<g>
			<path class="st0" d="M282.1,446.4c-10.1,38,20.4,66.2,66.3,66.2c45.4,0,90.8-28.5,100.7-66.2l19.6-79.9
				c2.8-11.2-6.9-17.6-18.8-17.6c-11.9,0-25,7.5-27.8,18.8l-20.1,76.9c-4.2,14.4-22.6,33.2-47.4,31.3c-26.5-2-28.8-14.6-26.6-31.3
				l20.4-78.2c3-11.2-7-17.4-18.9-17.4s-23.8,6.2-26.8,17.4L282.1,446.4z"/>
			<g>
				<path class="st1" d="M793.3,383h-23.1L760,422.2h23c14.2,0,25.5-8.5,28.5-19.6C814.5,391.6,807.6,383,793.3,383z"/>
				<path class="st2" d="M630.3,348.7c-11.2-0.2-23.1,5.4-26.5,18.6l-19.8,74.2l-57-84.4c-3.7-5.9-8.9-8.2-17.1-8.2
					c-11.2,0-23.5,7.9-26.3,18.6l-32.5,122.3c-3,12.7,6,22.3,17.4,22.3c11.2,0,25.3-7,28.7-19.6l18.9-72.7l53.4,78.9
					c5.2,9,14.6,13.4,20.9,13.4c11.2,0,22.6-6,27.5-22.6l30.7-119C651.9,358.2,647.4,348.9,630.3,348.7z"/>
				<path class="st2" d="M694,348.9c-11.7,0-25.3,6-28.3,17.1L632,491.3c-2.8,11.2,6.2,20.8,17.9,20.8s24.5-4.9,28.7-20.3L710.4,369
					C713.4,357.6,705.7,348.9,694,348.9z"/>
				<path class="st2" d="M964.7,368c-1.8-11.9-13.1-19.4-27.6-19.4c-14.1,0-27.3,8.4-34.3,18.6l-84.9,118.3c-0.8,1.2-3,3.9-3.9,7.4
					c-2.3,9,2.8,17.8,17.6,18.9c17.3,1.3,24.5-9,29.2-16.1l65.7-100.4l11.4,84.6l2.5,17.9c2.2,9.9,9.7,13.7,21.3,13.7
					c10.2,0,21.9-6.2,24.6-17.3c0.3-1.5,0.7-4.7,0-8.4L964.7,368z"/>
				<path class="st2" d="M859.5,401.3c8.2-31.5-15.1-52.8-55.6-52.8h-48.8c-13.7,0-24.3,6.7-27.5,18.8l-32.5,123.7
					c-3,11.2,4.7,21.1,16.6,21.1c10.6,0,25.3-3,29.7-19.9l9-35.4h29.8C818,456.8,851,434.6,859.5,401.3z M811.4,402.6
					c-2.8,11.1-14.2,19.6-28.5,19.6h-23.1L770,383h23.1C807.6,383,814.5,391.6,811.4,402.6z"/>
				<path class="st2" d="M1052.5,348.5h-54.3c-10.2,0-17.3,5-20.4,13.9c-3,7.9-1.3,17.4,6.5,20.9c1.2,0.5,3.5,1.2,6.5,1h51.8
					c15.2,0,19.3,5.4,16.8,16.1c-1.8,7.9-12.6,15.1-25.3,15.1h-17.4c-13.1,0-27.5,14.7-17.9,29l38.4,59.6c3.7,4.9,9.4,8.4,17.6,7.9
					c12.2-0.8,23.5-10.7,25.3-19.4c1.2-6-2.3-10.4-5-15.2l-23-35c24.3-4,49.4-18.3,56-43.1C1117,363.9,1094.9,348.5,1052.5,348.5z"
					/>
			</g>
		</g>
		<g>
			<g>
				<g>
					<path class="st2" d="M125.2,508c-2.2-8.9-2.5-17.8-1.3-26.5c-18.1-5.9-33.8-18.8-42.6-36.9c-4.7,14.4-5,30.3,0.2,45.9
						c9.2,27.3,33.2,45.6,60.1,48.8C133.9,530.7,128.2,520.1,125.2,508z"/>
					<path class="st3" d="M123.8,481.7c2.2-16.3,9.7-31.2,21.4-42.6c-14.1-7-26-18.4-33.2-33.3c-14.7,9-25.6,23-30.8,38.9
						C90,462.8,105.7,475.7,123.8,481.7z"/>
					<path class="st3" d="M169.4,481.4c-15.4,5.2-31.2,4.9-45.6,0.3c-1.2,8.5-0.8,17.4,1.3,26.5c2.8,12.1,8.7,22.6,16.4,31.2
						c10.4,1.2,21.1,0.2,31.5-3.4c37.9-12.7,58.1-53.8,45.4-91.6c-1-2.8-2.2-5.7-3.4-8.4c-0.2,0.2-0.3,0.2-0.5,0.2
						C207.6,456.8,191.5,474,169.4,481.4z"/>
					<path class="st4" d="M169.4,481.4c22.1-7.5,38.4-24.6,45.4-45.2c-4.4,2.7-9.2,4.9-14.4,6.7c-18.9,6.4-38.5,4.5-55.1-3.7
						c-11.6,11.2-19.3,26.3-21.4,42.6C138.1,486.4,154,486.6,169.4,481.4z"/>
					<path class="st5" d="M169.4,481.4c22.1-7.5,38.4-24.6,45.4-45.2c-4.4,2.7-9.2,4.9-14.4,6.7c-18.9,6.4-38.5,4.5-55.1-3.7
						c-11.6,11.2-19.3,26.3-21.4,42.6C138.1,486.4,154,486.6,169.4,481.4z"/>
				</g>
			</g>
			<g>
				<path class="st6" d="M192.5,335.1c1.5,7.5,1.7,15.2,0.8,22.5c6.9,1.3,13.6,3.5,20.1,7c14.7,7.7,25.6,19.6,32.2,33.7
					c5.2-14.7,5.5-31.2,0.3-46.9c-10.4-30.7-38.9-49.8-69.4-49.4C184.5,311.2,190.2,322.4,192.5,335.1z"/>
				<path class="st7" d="M213.5,364.4c-6.5-3.4-13.2-5.7-20.1-7c-2,15.7-9,30.3-19.8,41.6c17.8,6.2,33,19.1,41.6,37
					c14.4-8.9,25-22.5,30.5-37.9C239.1,384.2,228,372.2,213.5,364.4z"/>
				<path class="st8" d="M115.8,395.3c-1.7,3.2-3,6.4-4.2,9.6c0.2,0.3,0.3,0.7,0.5,1c4.5-2.8,9.6-5.2,14.7-6.9
					c15.7-5.4,32-4.9,46.6,0.2c10.7-11.2,17.9-25.6,19.8-41.6C162.9,351.9,130.9,366.3,115.8,395.3z"/>
				<path class="st7" d="M193.3,357.6c0.8-7.4,0.7-14.9-0.8-22.5c-2.3-12.7-8-24-15.9-33.2c-7.5,0-15.1,1.3-22.6,3.9
					c-37.9,12.7-58.1,53.8-45.4,91.6c0.8,2.5,1.8,5,3,7.4c1.2-3.2,2.5-6.5,4.2-9.6C130.9,366.3,162.9,351.9,193.3,357.6z"/>
			</g>
		</g>
	</g>
</g>
</svg>
