<svg width="89" height="40" viewBox="0 0 89 40" fill="none" xmlns="http://www.w3.org/2000/svg">
<g id="Capa_1" clip-path="url(#clip0_468_587)">
<g id="Group">
<path id="Vector" d="M49.6255 20C49.6255 14.4955 53.813 10.4338 59.4876 10.4338C62.225 10.4338 64.6961 11.3438 66.3682 13.1712L65.103 14.4363C63.5716 12.8753 61.6924 12.2094 59.5394 12.2094C54.9968 12.2094 51.5861 15.5387 51.5861 20C51.5861 24.4612 54.9968 27.7905 59.5394 27.7905C61.685 27.7905 63.5716 27.1173 65.103 25.534L66.3682 26.7991C64.7035 28.6266 62.2324 29.5662 59.4654 29.5662C53.8204 29.5662 49.6329 25.5118 49.6329 20H49.6255Z" fill="black"/>
<path id="Vector_2" d="M68.6912 27.1173L69.468 25.5858C70.8145 26.9028 73.2042 27.872 75.6753 27.872C79.197 27.872 80.7284 26.3923 80.7284 24.5427C80.7284 19.3859 69.1499 22.5525 69.1499 15.5979C69.1499 12.8309 71.2954 10.4412 76.0822 10.4412C78.2056 10.4412 80.4103 11.0627 81.9122 12.1059L81.2389 13.6891C79.6261 12.6386 77.7469 12.1281 76.0822 12.1281C72.6419 12.1281 71.1105 13.6595 71.1105 15.5388C71.1105 20.6955 82.689 17.5807 82.689 24.4317C82.689 27.1987 80.4843 29.5662 75.6753 29.5662C72.8565 29.5662 70.0895 28.5748 68.6912 27.1247V27.1173Z" fill="black"/>
<path id="Vector_3" d="M87.0098 10.5966H88.9999V29.4034H87.0098V10.5966Z" fill="black"/>
</g>
<g id="Group_2">
<g id="Group_3">
<path id="Vector_4" d="M34.8656 31.4305L16.0588 39.3543L13.7727 37.8746L13.6025 30.2986L13.5655 28.7005L13.4989 25.6819L13.4619 24.0839L13.314 17.4771L16.2068 19.3489L16.2659 22.8853L16.2955 24.4834L16.3473 27.5315L16.3769 29.1296L16.4953 36.0176L16.6433 36.1137L31.9729 29.5587L34.8656 31.4305Z" fill="black"/>
<path id="Vector_5" d="M36.3971 28.9668L33.5043 27.0876L33.2231 10.4263L33.0678 10.3301L25.2032 13.6964L23.7383 14.3179L20.9417 15.5164L19.4768 16.1453L17.7456 16.8851L14.8528 15.0133L19.4176 13.0897L20.8899 12.4683L23.6717 11.2993L25.1366 10.6778L33.6522 7.0896L35.9384 8.56929L36.3971 28.9668Z" fill="black"/>
</g>
<g id="Group_4">
<path id="Vector_6" d="M12.1005 29.322L3.58491 32.9103L1.29879 31.4306L0.840088 11.0331L3.73288 12.9049L4.01402 29.5736L4.16939 29.6698L12.0339 26.3035L12.1005 29.322Z" fill="black"/>
<path id="Vector_7" d="M19.4914 23.1148L17.7676 23.8547L17.8194 26.9102L22.3842 24.9866L19.4914 23.1148Z" fill="black"/>
<path id="Vector_8" d="M19.4916 23.1147L17.7677 23.8546L17.8195 26.9101L22.3844 24.9866L19.4916 23.1147ZM12.0339 26.3035L4.16939 29.6698L4.01402 29.5736L3.73288 12.9049L0.840088 11.0331L1.29879 31.4306L3.58491 32.9103L12.1005 29.322L12.0339 26.3035Z" fill="black"/>
<path id="Vector_9" d="M23.6347 9.70133L20.8603 10.8703L20.7419 3.98233L20.594 3.88615L5.27177 10.4412L2.37158 8.56937L21.1784 0.64563L23.4646 2.12532L23.6347 9.70133Z" fill="black"/>
<path id="Vector_10" d="M21.0304 20.651L20.9712 17.1145L23.7752 15.916L23.9232 22.5228L21.0304 20.651Z" fill="black"/>
<path id="Vector_11" d="M23.4646 2.12532L21.1784 0.64563L2.37158 8.56937L5.27177 10.4412L20.594 3.88615L20.7419 3.98233L20.8603 10.8703L23.6347 9.70133L23.4646 2.12532ZM23.7753 15.916L20.9713 17.1146L21.0305 20.651L23.9233 22.5228L23.7753 15.916Z" fill="black"/>
</g>
</g>
</g>
<defs>
<clipPath id="clip0_468_587">
<rect width="88.1599" height="38.7087" fill="white" transform="translate(0.840088 0.64563)"/>
</clipPath>
</defs>
</svg>
